<?xml version="1.0" encoding="UTF-8" standalone="no"?>
<!-- Created with Inkscape (http://www.inkscape.org/) -->

<svg
   xmlns:dc="http://purl.org/dc/elements/1.1/"
   xmlns:cc="http://creativecommons.org/ns#"
   xmlns:rdf="http://www.w3.org/1999/02/22-rdf-syntax-ns#"
   xmlns:svg="http://www.w3.org/2000/svg"
   xmlns="http://www.w3.org/2000/svg"
   xmlns:sodipodi="http://sodipodi.sourceforge.net/DTD/sodipodi-0.dtd"
   xmlns:inkscape="http://www.inkscape.org/namespaces/inkscape"
   id="svg4899"
   version="1.1"
   inkscape:version="0.91+devel+osxmenu r12922"
   width="25"
   height="25"
   viewBox="0 0 25 25"
   sodipodi:docname="favourite.svg">
  <metadata
     id="metadata4905">
    <rdf:RDF>
      <cc:Work
         rdf:about="">
        <dc:format>image/svg+xml</dc:format>
        <dc:type
           rdf:resource="http://purl.org/dc/dcmitype/StillImage" />
        <dc:title></dc:title>
      </cc:Work>
    </rdf:RDF>
  </metadata>
  <defs
     id="defs4903" />
  <sodipodi:namedview
     pagecolor="#ffffff"
     bordercolor="#666666"
     borderopacity="1"
     objecttolerance="10"
     gridtolerance="10"
     guidetolerance="10"
     inkscape:pageopacity="0"
     inkscape:pageshadow="2"
     inkscape:window-width="1920"
     inkscape:window-height="1156"
     id="namedview4901"
     inkscape:document-units="px"
     showgrid="true"
     fit-margin-top="0"
     fit-margin-left="0"
     fit-margin-right="0"
     fit-margin-bottom="0"
     inkscape:zoom="31.522821"
     inkscape:cx="12.763555"
     inkscape:cy="12.55078"
     inkscape:window-x="0"
     inkscape:window-y="22"
     inkscape:window-maximized="0"
     inkscape:current-layer="svg4899"
     inkscape:snap-global="true"
     inkscape:snap-bbox="true"
     inkscape:object-paths="true">
    <inkscape:grid
       type="xygrid"
       id="grid5452"
       spacingx="0.5"
       spacingy="0.5"
       originx="3.5"
       originy="-5" />
  </sodipodi:namedview>
  <path
     style="color:#000000;font-style:normal;font-variant:normal;font-weight:normal;font-stretch:normal;font-size:medium;line-height:normal;font-family:sans-serif;font-variant-ligatures:none;font-variant-position:normal;font-variant-caps:normal;font-variant-numeric:normal;font-variant-alternates:normal;font-feature-settings:normal;text-indent:0;text-align:start;text-decoration:none;text-decoration-line:none;text-decoration-style:solid;text-decoration-color:#000000;letter-spacing:normal;word-spacing:normal;text-transform:none;direction:ltr;block-progression:tb;writing-mode:lr-tb;baseline-shift:baseline;text-anchor:start;white-space:normal;shape-padding:0;clip-rule:nonzero;display:inline;overflow:visible;visibility:visible;opacity:1;isolation:auto;mix-blend-mode:normal;color-interpolation:sRGB;color-interpolation-filters:linearRGB;solid-color:#000000;solid-opacity:1;fill:#000000;fill-opacity:1;fill-rule:evenodd;stroke:none;stroke-width:0.99997222px;stroke-linecap:butt;stroke-linejoin:miter;stroke-miterlimit:4;stroke-dasharray:none;stroke-dashoffset:0;stroke-opacity:1;color-rendering:auto;image-rendering:auto;shape-rendering:auto;text-rendering:auto;enable-background:accumulate"
     d="M 7.1796875,0.00138916 C 6.6193945,-0.01045706 6.0565305,0.05358232 5.5078125,0.18887874 2.5813225,0.91045962 0,3.6477326 0,7.5009724 0,10.462929 1.84563,13.240516 4.2480469,15.992689 5.9659479,17.96069 7.9887438,19.926078 9.9065237,21.92333 10.839941,23.051712 11.654674,23.838629 12.5,25 c 0.798584,-1.099807 1.799396,-2.177062 2.567859,-3.049984 1.925374,-2.006432 3.958542,-3.980561 5.684094,-5.957327 C 23.154371,13.240514 25,10.462929 25,7.5009724 25,3.6477326 22.418678,0.91045962 19.492188,0.18887874 18.94347,0.05358232 18.380606,-0.01045705 17.820312,0.00138916 17.633548,0.0053379 17.447402,0.01741007 17.261719,0.03849647 16.518984,0.12284209 15.790241,0.34573234 15.113281,0.72400526 14.014426,1.3380262 13.1442,2.4668745 12.5,3.901563 11.8558,2.4668745 10.985574,1.3380262 9.8867188,0.72400526 9.2097588,0.34573234 8.4810163,0.12284209 7.7382812,0.03849647 7.5525982,0.01741004 7.3664515,0.00533794 7.1796875,0.00138916 Z M 6.6855469,1.0130517 c 0.3141158,-0.0222505 0.62847,-0.0173693 0.9375,0.017577 0.61806,0.069893 1.2182556,0.2550586 1.7753906,0.5663747 1.1142665,0.6226323 2.0721175,1.7499016 2.6230465,3.550584 L 12.421875,6.4522026 12.5,6.7584318 12.57813,6.4522026 12.978521,5.1475876 c 0.550934,-1.8006824 1.508781,-2.9279517 2.623046,-3.550584 0.557136,-0.3113161 1.157331,-0.496482 1.775391,-0.5663747 0.61806,-0.0698929 1.254034,-0.022741 1.876953,0.130852 C 21.745584,1.7758507 24,4.0916338 24,7.5009724 c 0,2.5377376 -1.65437,5.1441926 -4.001953,7.8335486 -2.222297,2.545831 -5.018799,5.164979 -7.455078,7.89214 -0.04297,0.05998 -0.05836,0 -0.08594,0 C 10.020752,20.4995 7.2242501,17.880352 5.0019531,15.334521 2.6543701,12.645165 1,10.03871 1,7.5009724 1,4.0916338 3.2544158,1.7758508 5.7460938,1.1614809 6.0575533,1.0846847 6.371431,1.0353022 6.6855469,1.0130517 Z"
     id="path5595"
     inkscape:connector-curvature="0"
     sodipodi:nodetypes="sssscccsssssscsssssscccccsssssccssss" />
</svg>
